<svg id="Layer_1" data-name="Layer 1" xmlns="http://www.w3.org/2000/svg" viewBox="0 0 1048.89 183.53"><defs><style>.cls-1,.cls-2{fill:none;stroke-linecap:round;}.cls-1,.cls-2,.cls-3{stroke:#fff;}.cls-1,.cls-3{stroke-miterlimit:10;}.cls-1{stroke-width:11.75px;}.cls-2{stroke-linejoin:round;stroke-width:8.82px;}.cls-3{fill:#fff;}</style></defs><path class="cls-1" d="M233.05,491.45s-18-31.47,8.68-37.35,26.92,26.34,26.92,26.34a38,38,0,0,0,16.74,28.33" transform="translate(-13.62 -447.5)"/><path class="cls-2" d="M208.81,580.26c9.2,26.86-19.14,46.36-19.14,46.36h10.12s26.68-8.83,29.63-35.32,10.49-35.52,21.89-62.44-17.2-35.33-17.2-35.33-6.35-3.16-22.17-1.68c0,0-16.09,1.95-24.8,11.15s-20.65,37.21-34.88,48.86-43.27,5.7-43.27,5.7" transform="translate(-13.62 -447.5)"/><path class="cls-2" d="M193,622.88H173.75c30.3-14.72,20.06-40.6,20.06-40.6s-35.45,33.49-87.83,23.8c0,0-55.57,5.39-74.46,14.84H18l10.2-10a35.13,35.13,0,0,1,8-5.86c10.8-5.82,38.18-20.41,45.51-22.76" transform="translate(-13.62 -447.5)"/><path class="cls-2" d="M88.17,579.41c-4.93,2.22-9.44,5.12-13.92,2.1l-8.76-5.9a11.54,11.54,0,0,1-4.52-6l-.53-1.68a10.63,10.63,0,0,1,4.62-12.34c3.37-2,7.11-4.36,9.27-5.87,5.91-4.13,14.2-1.43,17.85.11a7.17,7.17,0,0,0,4.07.44c4.45-.83,14.64-5.91,14.63-5.87a50,50,0,0,1-4.95,17.74S98.14,574.92,88.17,579.41Z" transform="translate(-13.62 -447.5)"/><path class="cls-3" d="M426.24,528.11l-11.48,28.36q-8.56,21-13.24,29A47.84,47.84,0,0,1,389.73,599a37.83,37.83,0,0,1-24.07,8.16q-14.46,0-23.44-9.13t-9-23.72q0-19.5,14.24-34.09a56.87,56.87,0,0,1,19.23-12.69,59.13,59.13,0,0,1,22.89-4.81,14.46,14.46,0,0,1,8.78,2.45,7.67,7.67,0,0,1,3.32,6.47,8,8,0,0,1-3.59,6.78q-2.09,1.51-8,2.07-13.69,1.25-22.2,6.3a31.7,31.7,0,0,0-11.13,11,27.49,27.49,0,0,0-4.08,14.35c0,5.12,1.32,9.18,4,12.21a13.52,13.52,0,0,0,10.68,4.52q8.43,0,14.59-7.12t13.56-25.31l24-59H412q-9.56,0-9.55-6.64a8.69,8.69,0,0,1,3.36-7.3q3.35-2.6,9.44-2.59H441.6q13.27,0,19.6,5t6.33,15.46a25.76,25.76,0,0,1-9.82,20.82q-7.12,5.87-22,5.87ZM433,511.58h5.6q11.07,0,11.07-9,0-5.11-6.29-5.11h-4.64Z" transform="translate(-13.62 -447.5)"/><path class="cls-3" d="M472.65,555.09q0,5.17,7.81,5.18H501q8.72,0,8.72,6.16a7.81,7.81,0,0,1-3.08,6.57q-3.08,2.36-8.61,2.35H478.46q-10.93,0-16.63-5.39t-5.71-15.77a32.6,32.6,0,0,1,9-23q9-9.69,21.47-9.69,9.06,0,14.56,4.74a15.69,15.69,0,0,1,5.49,12.48q0,9.34-7.6,13.84-4.23,2.55-12.59,2.56ZM476,542.5h7.61q7.4,0,7.19-3.25c-.14-2.44-1.73-3.67-4.77-3.67Q479.63,535.58,476,542.5Z" transform="translate(-13.62 -447.5)"/><path class="cls-3" d="M546.93,522.44h2.14q8.77,0,8.78,6.16a7.78,7.78,0,0,1-3.11,6.57q-3.11,2.36-8.58,2.35h-5l-9.27,22.75h7.74q8.79,0,8.79,6.16A7.81,7.81,0,0,1,545.3,573q-3.07,2.36-8.61,2.35H524.31q-5.25,0-8.33-2.42a7.9,7.9,0,0,1-3.08-6.57,15.37,15.37,0,0,1,1.24-5.67l1.32-3,8.16-20.13h-1q-7.74,0-7.74-6a8,8,0,0,1,3.07-6.67q3.08-2.39,8.61-2.39h3.18l3.67-9.06.76-1.86q3.25-7.68,10.24-7.68a6.88,6.88,0,0,1,4.87,1.9,6.06,6.06,0,0,1,2,4.6,17.08,17.08,0,0,1-1.8,6.64Z" transform="translate(-13.62 -447.5)"/><path class="cls-3" d="M578,541.32l-1.32,3.18q-3,6.86-8.64,6.85a7.5,7.5,0,0,1-5.08-2,5.88,5.88,0,0,1-2.25-4.53,15.62,15.62,0,0,1,2-6.43l9.2-18.67q3.39-6.72,8.44-6.71A6.65,6.65,0,0,1,585,514.8,5.49,5.49,0,0,1,586.9,519a17.88,17.88,0,0,1-.42,2.7,15.76,15.76,0,0,0-.27,2.7,15.39,15.39,0,0,0,3.25,8.92l3.94,5.46q6,8.37,6,16.19a18.79,18.79,0,0,1-6.5,14.56,23.35,23.35,0,0,1-16.19,5.84H562.28q-8.79,0-8.78-6.09a7.84,7.84,0,0,1,3.11-6.6q3.1-2.38,8.57-2.39h8q9.6,0,9.61-7a13.48,13.48,0,0,0-1.8-6Z" transform="translate(-13.62 -447.5)"/><path class="cls-3" d="M721.21,558.82h10.23q9.62,0,9.61,6.78a8.54,8.54,0,0,1-3.38,7.16q-3.39,2.6-9.41,2.59H714.43l-5.12,12.73q-8.37,21.09-17.5,29.77t-22.75,8.68q-12.87,0-21.47-8.54T639,596.65q0-20.19,19.36-31.12,11.82-6.57,32.5-6.57l11-.14,2.35-5.88a30.81,30.81,0,0,1-10.72,1.94q-10.58,0-17.08-7.37t-6.5-19.4H658.55q-7.75,0-7.75-6.57a9.19,9.19,0,0,1,3.15-7.08,11.1,11.1,0,0,1,7.78-2.88h11.82q7.55-15,19.06-23.51t24.31-8.51q10.58,0,17.25,6.23a21,21,0,0,1,6.68,16q0,13.84-12.38,21.3-8.24,5-24.76,5H687.94v1.39q0,8.85,10.37,8.85a19,19,0,0,0,9.48-2.77l3.66-2.14c3.18-1.84,5.9-2.77,8.16-2.77a9,9,0,0,1,6.3,2.28,7.64,7.64,0,0,1,2.49,5.88q0,2.22-1.94,7Zm-26.08,16.53q-14.6,0-22.34,2.77a26.22,26.22,0,0,0-11.34,7.36,15.92,15.92,0,0,0-4.15,10.62,12.76,12.76,0,0,0,3.56,9.13,11.64,11.64,0,0,0,8.75,3.73q6.3,0,11.38-5.6t10.13-18.12ZM693,511.58h13.42q17.15,0,17.15-9.33a5.7,5.7,0,0,0-2.25-4.6,8.75,8.75,0,0,0-5.71-1.83q-5.33,0-11.37,4.22A46.75,46.75,0,0,0,693,511.58Z" transform="translate(-13.62 -447.5)"/><path class="cls-3" d="M793.68,560.27h7.61q8.72,0,8.71,6.09a7.84,7.84,0,0,1-3.11,6.6q-3.1,2.38-8.57,2.39h-8.86q-5.94,0-8.09-4.63-5.19,4.63-10,4.63h-7.88a15.42,15.42,0,0,1-12.28-5.43q-4.66-5.43-4.66-14.21A35.12,35.12,0,0,1,755.68,532q9.17-10.47,20.71-10.48,8.85,0,12.94,6.16,3.45-5.19,9-5.19a7.12,7.12,0,0,1,5.09,1.94,6.31,6.31,0,0,1,2,4.77,12.51,12.51,0,0,1-1.11,4.63l-.76,1.87Zm-25.1.35h1.73q5.67,0,7.53-4.63l4.85-12a10.88,10.88,0,0,0,1-3.94,4,4,0,0,0-1.83-3.25,7.08,7.08,0,0,0-4.39-1.39q-5.05,0-9.82,5.88t-4.77,12.18Q762.84,560.63,768.58,560.62Z" transform="translate(-13.62 -447.5)"/><path class="cls-3" d="M829.92,537.59l-2.35,5.81q-3.18,7.74-8.3,7.74a7.51,7.51,0,0,1-5.19-1.86,6,6,0,0,1-2.07-4.64,17.5,17.5,0,0,1,1.52-5.39l7.82-19.3q2.83-7,8-7t6.29,4.84l.55,2.14a3,3,0,0,0,1.25,2.08,12,12,0,0,0,4.08.41h16.18q9.06,0,9.06,6.37,0,8.78-11.48,8.78l-.76.69q-11,10.51-11,16.25t6.36,5.74h8.71q8.79,0,8.79,6.09a7.88,7.88,0,0,1-3.08,6.64q-3.08,2.36-8.61,2.35H842.16a14.65,14.65,0,0,1-11.3-4.77q-4.4-4.77-4.4-12.38a20.42,20.42,0,0,1,2.35-9.41,58.39,58.39,0,0,1,8.3-11.2Z" transform="translate(-13.62 -447.5)"/><path class="cls-3" d="M918,560.27h7.88q8.79,0,8.79,6.16a7.76,7.76,0,0,1-3.12,6.57q-3.1,2.36-8.57,2.35H913.6a8.38,8.38,0,0,1-7.88-4.43q-4.43,4.44-9.48,4.43h-8.78a15.46,15.46,0,0,1-12.27-5.26q-4.61-5.25-4.6-14a36,36,0,0,1,9.09-24q9.09-10.65,20.44-10.66a16.41,16.41,0,0,1,13.34,6l15.43-37.83q3.93-9.68,11-9.68a7.18,7.18,0,0,1,5,1.9,6.12,6.12,0,0,1,2.08,4.67,13.72,13.72,0,0,1-1,4.84l-.83,1.87Zm-25.31.35h2.63c3.18,0,5.27-1.27,6.29-3.8l5.19-12.8a10.56,10.56,0,0,0,1-3.6A4.4,4.4,0,0,0,906,536.9a6.66,6.66,0,0,0-4.39-1.46q-5.4,0-10.06,6a20.75,20.75,0,0,0-4.67,13Q886.84,560.63,892.65,560.62Z" transform="translate(-13.62 -447.5)"/><path class="cls-3" d="M954,555.09q0,5.17,7.82,5.18h20.54q8.71,0,8.71,6.16A7.81,7.81,0,0,1,988,573q-3.08,2.36-8.61,2.35H959.8q-10.92,0-16.63-5.39t-5.71-15.77a32.6,32.6,0,0,1,9-23q9-9.69,21.47-9.69,9.06,0,14.56,4.74a15.69,15.69,0,0,1,5.5,12.48q0,9.34-7.61,13.84-4.21,2.55-12.59,2.56Zm3.32-12.59h7.61q7.4,0,7.19-3.25c-.14-2.44-1.73-3.67-4.77-3.67Q961,535.58,957.31,542.5Z" transform="translate(-13.62 -447.5)"/><path class="cls-3" d="M1044.93,560.27h8.3q8.79,0,8.79,6.16a7.76,7.76,0,0,1-3.12,6.57q-3.11,2.36-8.57,2.35h-14.45a10.23,10.23,0,0,1-7.09-2.56,8.22,8.22,0,0,1-2.87-6.43,20.9,20.9,0,0,1,1.93-7.06l6.09-15.07a12.48,12.48,0,0,0,1-3.81,3.39,3.39,0,0,0-1.35-2.83,5.54,5.54,0,0,0-3.63-1.18q-7.12,0-11.48,10.72l-8.16,20.06q-3.68,9.12-10.93,9.13a7.44,7.44,0,0,1-5-1.8,5.64,5.64,0,0,1-2.07-4.43,12.51,12.51,0,0,1,1.1-4.63l.76-1.87,14-34.44q2.7-6.71,9.2-6.71a7.84,7.84,0,0,1,7.61,4.71q7.4-5.67,14.11-5.68a15.6,15.6,0,0,1,10.72,3.74,12.1,12.1,0,0,1,4.21,9.47,18.85,18.85,0,0,1-1.52,7Z" transform="translate(-13.62 -447.5)"/></svg>